Coordinates
version=1
nRows=41
nColumns=38
inDegrees=no

Units are S.I. units (second, meters, Newtons, ...)
If the header above contains a line with 'inDegrees', this indicates whether rotational values are in degrees (yes) or radians (no).

endheader
time	pelvis_tilt	pelvis_list	pelvis_rotation	pelvis_tx	pelvis_ty	pelvis_tz	hip_flexion_r	hip_adduction_r	hip_rotation_r	knee_angle_r	ankle_angle_r	subtalar_angle_r	mtp_angle_r	hip_flexion_l	hip_adduction_l	hip_rotation_l	knee_angle_l	ankle_angle_l	subtalar_angle_l	mtp_angle_l	lumbar_extension	lumbar_bending	lumbar_rotation	arm_flex_r	arm_add_r	arm_rot_r	elbow_flex_r	pro_sup_r	wrist_flex_r	wrist_dev_r	arm_flex_l	arm_add_l	arm_rot_l	elbow_flex_l	pro_sup_l	wrist_flex_l	wrist_dev_l
0	2.70976	1.44132	-1.01338	0.683415	-0.57548	0.912393	0.288196	0.00324907	-0.173009	0.444046	0.0857222	0	0	-0.238315	-0.187205	-0.2709	0.767182	0.0145769	0	0	-0.269599	0.0536808	-0.199064	-0.110732	-0.228049	0.125114	0.459308	1.04926	0	0	-0.0497804	-0.408645	0.296669	0.693385	1.26584	0	0
0.01	2.6488	1.44627	-0.960064	0.68522	-0.564326	0.913174	0.283227	0.013961	-0.161114	0.441989	0.094215	0	0	-0.195546	-0.202077	-0.269898	0.835273	-0.0443384	0	0	-0.260586	0.0594746	-0.188485	-0.115201	-0.227536	0.120354	0.46577	1.05046	0	0	-0.0515998	-0.407584	0.30793	0.692322	1.26541	0	0
0.02	2.60651	1.448	-0.925013	0.686841	-0.552877	0.914316	0.273884	0.023728	-0.151673	0.440483	0.101704	0	0	-0.158222	-0.215729	-0.268939	0.898631	-0.0997898	0	0	-0.255569	0.0646046	-0.179634	-0.118748	-0.227004	0.116065	0.47059	1.05104	0	0	-0.0558935	-0.406236	0.314299	0.694926	1.26499	0	0
0.03	2.58104	1.44937	-0.906392	0.688356	-0.541578	0.915586	0.263431	0.0319497	-0.140382	0.439191	0.107276	0	0	-0.122187	-0.227072	-0.267937	0.958442	-0.146762	0	0	-0.252304	0.0676084	-0.171589	-0.121561	-0.226205	0.111751	0.474705	1.05201	0	0	-0.0605609	-0.405646	0.319906	0.699397	1.26455	0	0
0.04	2.58156	1.44972	-0.914178	0.689821	-0.530412	0.917155	0.249473	0.038419	-0.127148	0.435845	0.110082	0	0	-0.09129	-0.235276	-0.269964	1.01014	-0.176199	0	0	-0.252373	0.0678844	-0.163419	-0.123259	-0.225616	0.108996	0.47799	1.0532	0	0	-0.0651781	-0.405378	0.32364	0.704263	1.26565	0	0
0.05	2.59422	1.44971	-0.934417	0.69131	-0.519285	0.918878	0.233021	0.0440051	-0.113102	0.430134	0.112105	0	0	-0.063918	-0.242314	-0.275613	1.05532	-0.181984	0	0	-0.253784	0.0663401	-0.155247	-0.124539	-0.225592	0.107782	0.481432	1.05502	0	0	-0.0699661	-0.405219	0.32576	0.709437	1.26925	0	0
0.06	2.62383	1.44949	-0.970928	0.692661	-0.508219	0.920819	0.214142	0.0470394	-0.101377	0.423081	0.115726	0	0	-0.0383885	-0.24696	-0.280237	1.09849	-0.165673	0	0	-0.25668	0.0626447	-0.148635	-0.124644	-0.226352	0.110125	0.483921	1.05734	0	0	-0.0748404	-0.404262	0.32397	0.713488	1.27465	0	0
0.07	2.66312	1.45042	-1.015	0.693749	-0.497315	0.92276	0.19569	0.0469722	-0.0926024	0.416338	0.121659	0	0	-0.010048	-0.247911	-0.278581	1.14315	-0.132968	0	0	-0.259214	0.0571295	-0.14484	-0.123689	-0.227738	0.115551	0.485278	1.06093	0	0	-0.0798852	-0.403258	0.320317	0.716516	1.28117	0	0
0.08	2.70967	1.4514	-1.06473	0.694629	-0.486534	0.924765	0.176308	0.0450389	-0.0866452	0.408278	0.127718	0	0	0.0188288	-0.245839	-0.273168	1.18285	-0.0963725	0	0	-0.262047	0.0507272	-0.14302	-0.121837	-0.229811	0.123388	0.48551	1.06571	0	0	-0.084682	-0.401863	0.314869	0.718911	1.28786	0	0
0.09	2.76181	1.45195	-1.11903	0.695347	-0.475862	0.926829	0.155707	0.0420663	-0.0823441	0.398647	0.13296	0	0	0.0468522	-0.241583	-0.266696	1.21453	-0.0635768	0	0	-0.265329	0.0438257	-0.141837	-0.119786	-0.232321	0.131918	0.485126	1.06999	0	0	-0.0882829	-0.400369	0.310345	0.719649	1.2951	0	0
0.1	2.832	1.45303	-1.19277	0.697129	-0.464937	0.928876	0.134131	0.0360424	-0.080801	0.387176	0.139017	0	0	0.0714851	-0.250936	-0.256613	1.23597	-0.0281214	0	0	-0.268096	0.0324515	-0.139393	-0.118462	-0.233345	0.138942	0.484415	1.07279	0	0	-0.0912567	-0.400343	0.30789	0.718118	1.30126	0	0
0.11	2.88752	1.4522	-1.24953	0.697539	-0.454462	0.930931	0.11205	0.0319747	-0.0788818	0.37573	0.143328	0	0	0.0974016	-0.243958	-0.25027	1.25256	-0.00890042	0	0	-0.272152	0.0257072	-0.137558	-0.117285	-0.235676	0.143464	0.482999	1.07393	0	0	-0.0917359	-0.398714	0.307857	0.715862	1.30402	0	0
0.12	2.94043	1.45189	-1.3034	0.69777	-0.44408	0.932797	0.0906549	0.0274195	-0.0779889	0.363458	0.147685	0	0	0.12343	-0.235754	-0.244766	1.26271	0.00458165	0	0	-0.27501	0.019225	-0.136235	-0.115795	-0.237824	0.148035	0.480092	1.07368	0	0	-0.0921954	-0.396698	0.307512	0.71293	1.30544	0	0
0.13	2.9896	1.4517	-1.35448	0.697991	-0.433753	0.934465	0.0700287	0.0230181	-0.076511	0.350708	0.151708	0	0	0.148341	-0.22722	-0.241326	1.26652	0.0142809	0	0	-0.276962	0.0130411	-0.133084	-0.115248	-0.239814	0.151547	0.477268	1.07147	0	0	-0.0913929	-0.394471	0.309019	0.70929	1.30522	0	0
0.14	3.03321	1.45162	-1.39958	0.698129	-0.423367	0.935906	0.0497312	0.0189366	-0.0764918	0.337618	0.156035	0	0	0.172632	-0.219116	-0.239074	1.2651	0.0235226	0	0	-0.277828	0.00754723	-0.129818	-0.115795	-0.241419	0.154587	0.475026	1.06774	0	0	-0.0903029	-0.392285	0.311529	0.705603	1.30295	0	0
0.15	3.0725	1.45149	-1.44091	0.698589	-0.412819	0.937118	0.0297066	0.0153077	-0.0760602	0.324743	0.160174	0	0	0.195597	-0.21175	-0.239679	1.259	0.0367839	0	0	-0.278094	0.00226222	-0.12543	-0.117196	-0.242673	0.157337	0.472994	1.06313	0	0	-0.0888664	-0.39031	0.314628	0.702177	1.29881	0	0
0.16	3.09413	1.45095	-1.46541	0.697522	-0.402911	0.938271	0.0107754	0.0128631	-0.0745172	0.313087	0.163037	0	0	0.21876	-0.19136	-0.245618	1.24957	0.0440924	0	0	-0.278986	0.000907491	-0.119393	-0.118071	-0.245742	0.159536	0.470855	1.05786	0	0	-0.086069	-0.386544	0.31923	0.699227	1.29285	0	0
0.17	3.132	1.45048	-1.50779	0.697823	-0.392558	0.939235	-0.00806488	0.00905018	-0.0719542	0.301676	0.165579	0	0	0.237845	-0.185327	-0.251845	1.23389	0.0602524	0	0	-0.279078	-0.00487331	-0.112227	-0.1193	-0.246939	0.162581	0.46828	1.05029	0	0	-0.0840447	-0.384639	0.32365	0.696796	1.28357	0	0
0.18	-3.11559	1.44945	-1.54907	0.69824	-0.382204	0.940075	-0.0266045	0.00552097	-0.0672662	0.291047	0.167872	0	0	0.254397	-0.180169	-0.260864	1.21323	0.0738309	0	0	-0.279674	-0.010853	-0.103918	-0.120644	-0.24812	0.165454	0.466061	1.04395	0	0	-0.082497	-0.382893	0.326773	0.69542	1.27465	0	0
0.19	-3.07912	1.44776	-1.59169	0.698713	-0.37188	0.94079	-0.0457055	0.00187134	-0.06144	0.280546	0.170285	0	0	0.268532	-0.175018	-0.271986	1.18758	0.0847467	0	0	-0.280927	-0.0174689	-0.0953478	-0.122133	-0.249249	0.168145	0.464825	1.03869	0	0	-0.0813047	-0.381474	0.32847	0.694854	1.26667	0	0
0.2	-3.04347	1.44553	-1.63346	0.699186	-0.361673	0.941385	-0.0645857	-0.0020411	-0.0555959	0.271012	0.172789	0	0	0.2805	-0.169561	-0.284394	1.1573	0.0950654	0	0	-0.282958	-0.0245042	-0.0871497	-0.123815	-0.250311	0.170084	0.465328	1.03416	0	0	-0.08042	-0.380313	0.328363	0.695661	1.26068	0	0
0.21	-3.01217	1.44291	-1.6701	0.699569	-0.351514	0.941847	-0.0831377	-0.00590675	-0.0507881	0.262382	0.175337	0	0	0.29064	-0.163912	-0.296973	1.12283	0.104044	0	0	-0.285421	-0.0313601	-0.0799357	-0.125881	-0.251217	0.170861	0.467108	1.0304	0	0	-0.0798362	-0.379126	0.326242	0.697283	1.25743	0	0
0.22	-2.98523	1.4403	-1.70172	0.699896	-0.341435	0.942136	-0.101631	-0.0094637	-0.0468309	0.253602	0.178404	0	0	0.299105	-0.158242	-0.310121	1.08385	0.111894	0	0	-0.287957	-0.037996	-0.0733729	-0.128057	-0.251703	0.169927	0.469473	1.02728	0	0	-0.0792694	-0.377984	0.322717	0.698707	1.25639	0	0
0.23	-2.96446	1.43785	-1.72594	0.700153	-0.331408	0.942208	-0.12111	-0.0120552	-0.0437048	0.242795	0.181693	0	0	0.306194	-0.152607	-0.323125	1.04067	0.119331	0	0	-0.290558	-0.0439645	-0.068329	-0.129874	-0.251686	0.167945	0.472279	1.02445	0	0	-0.0790404	-0.37709	0.317906	0.699879	1.25626	0	0
0.24	-2.95049	1.43533	-1.74262	0.700349	-0.32143	0.942072	-0.140185	-0.0137635	-0.0412196	0.233309	0.185947	0	0	0.311353	-0.147155	-0.336689	0.993099	0.126182	0	0	-0.293707	-0.0491536	-0.0645817	-0.131084	-0.25161	0.166939	0.475596	1.02228	0	0	-0.0792694	-0.376362	0.311749	0.70144	1.25717	0	0
0.25	-2.94003	1.43338	-1.75507	0.700451	-0.311484	0.941685	-0.157904	-0.0151215	-0.0401045	0.225625	0.190948	0	0	0.315165	-0.14135	-0.350878	0.941024	0.132404	0	0	-0.296529	-0.0537906	-0.062198	-0.131233	-0.251422	0.167161	0.477609	1.02089	0	0	-0.0800819	-0.375696	0.304449	0.702711	1.25886	0	0
0.26	-2.93022	1.43188	-1.76597	0.70046	-0.301611	0.941053	-0.175044	-0.0163725	-0.0404901	0.218253	0.195769	0	0	0.317615	-0.134359	-0.365122	0.884237	0.137574	0	0	-0.299162	-0.0582217	-0.0612005	-0.130006	-0.250782	0.167768	0.477919	1.01952	0	0	-0.0811417	-0.375231	0.296541	0.703677	1.26028	0	0
0.27	-2.92027	1.43067	-1.77658	0.700382	-0.291757	0.940204	-0.191494	-0.0178049	-0.0415796	0.211695	0.201608	0	0	0.318187	-0.126124	-0.380483	0.822155	0.140991	0	0	-0.301756	-0.0627014	-0.0609272	-0.128069	-0.249814	0.168496	0.477547	1.01787	0	0	-0.0822819	-0.374919	0.288138	0.705041	1.26067	0	0
0.28	-2.87063	1.43224	-1.82684	0.7002	-0.2817	0.938392	-0.201438	-0.0218991	-0.0572121	0.205602	0.207594	0	0	0.320709	-0.111564	-0.398912	0.755237	0.143065	0	0	-0.299358	-0.0726056	-0.0618988	-0.12727	-0.24797	0.168935	0.477532	1.01589	0	0	-0.085018	-0.37611	0.280523	0.707849	1.26015	0	0
0.29	-2.90205	1.42876	-1.79438	0.699823	-0.271955	0.93789	-0.223727	-0.0209955	-0.0479518	0.200162	0.216756	0	0	0.313649	-0.105925	-0.41503	0.683146	0.141656	0	0	-0.306636	-0.0713688	-0.0630827	-0.123212	-0.247025	0.170037	0.476007	1.01384	0	0	-0.0844205	-0.374867	0.273628	0.706117	1.25858	0	0
0.3	-2.89636	1.42821	-1.7988	0.699222	-0.262107	0.936466	-0.239462	-0.0222284	-0.0512962	0.194735	0.224035	0	0	0.309232	-0.0934272	-0.431619	0.606879	0.137854	0	0	-0.309301	-0.0747016	-0.0649952	-0.12057	-0.245803	0.17045	0.475053	1.0118	0	0	-0.0844586	-0.374409	0.267585	0.704573	1.25605	0	0
0.31	-2.88978	1.42874	-1.8032	0.698382	-0.252259	0.934767	-0.253168	-0.0236296	-0.056335	0.191675	0.232851	0	0	0.304627	-0.0787172	-0.445952	0.527242	0.132016	0	0	-0.311112	-0.0774925	-0.067364	-0.118142	-0.244632	0.170119	0.474589	1.0092	0	0	-0.0839336	-0.373876	0.263051	0.702077	1.25233	0	0
0.32	-2.8834	1.43031	-1.80722	0.697319	-0.242389	0.932811	-0.264886	-0.0250725	-0.0617976	0.190355	0.242323	0	0	0.299539	-0.0619753	-0.457261	0.445022	0.125854	0	0	-0.311834	-0.0796985	-0.0697528	-0.115684	-0.244038	0.170499	0.474179	1.00596	0	0	-0.0831015	-0.373072	0.259704	0.698448	1.24764	0	0
0.33	-2.87354	1.43197	-1.81452	0.696032	-0.232512	0.930725	-0.274796	-0.0274082	-0.0682898	0.191852	0.252578	0	0	0.291459	-0.0409447	-0.458892	0.357101	0.117552	0	0	-0.31253	-0.0821418	-0.0724374	-0.112929	-0.244151	0.17288	0.472885	1.00125	0	0	-0.0821197	-0.372041	0.256499	0.694094	1.2409	0	0
0.34	-2.85095	1.43403	-1.83403	0.694498	-0.222558	0.928405	-0.285738	-0.0326535	-0.0791153	0.192649	0.266329	0	0	0.278254	-0.0131645	-0.441213	0.257683	0.103053	0	0	-0.31226	-0.0860303	-0.0760689	-0.110247	-0.244748	0.177087	0.47086	0.996145	0	0	-0.0815732	-0.370907	0.252794	0.689383	1.23288	0	0
0.35	-2.84078	1.4365	-1.84219	0.692943	-0.212474	0.925966	-0.294478	-0.0354326	-0.0879481	0.195888	0.277586	0	0	0.2604	0.013147	-0.405255	0.154125	0.08408	0	0	-0.311655	-0.0881694	-0.0782094	-0.107756	-0.246227	0.181583	0.469309	0.988302	0	0	-0.0812537	-0.369147	0.249053	0.684051	1.22441	0	0
0.36	-2.84656	1.43961	-1.83588	0.691595	-0.202104	0.923344	-0.303156	-0.035843	-0.0935758	0.199219	0.287687	0	0	0.238514	0.0341126	-0.352017	0.0513997	0.0598564	0	0	-0.310029	-0.0885605	-0.0778003	-0.106706	-0.248232	0.185519	0.469334	0.979721	0	0	-0.0809905	-0.367329	0.246151	0.677836	1.21857	0	0
0.37	-2.86305	1.44212	-1.8169	0.690627	-0.191872	0.920557	-0.310478	-0.0301321	-0.0914407	0.206506	0.293848	0	0	0.232858	0.0420137	-0.312854	0	0.0474944	0	0	-0.309553	-0.0884891	-0.0772567	-0.106436	-0.248923	0.187457	0.46885	0.975832	0	0	-0.0800865	-0.367062	0.243798	0.672267	1.21662	0	0
0.38	-2.88906	1.441	-1.78939	0.689863	-0.181675	0.918217	-0.321473	-0.0277439	-0.0954594	0.214598	0.301933	0	0	0.24121	0.0416773	-0.29676	0	0.046851	0	0	-0.312945	-0.088835	-0.0770951	-0.104384	-0.248762	0.190251	0.466071	0.972424	0	0	-0.08009	-0.367333	0.239304	0.667919	1.21532	0	0
0.39	-2.90996	1.44099	-1.76874	0.689166	-0.17101	0.915853	-0.330841	-0.0262651	-0.0984346	0.223884	0.309611	0	0	0.247971	0.0418467	-0.288334	0	0.0472334	0	0	-0.313916	-0.0900663	-0.0757911	-0.102494	-0.248476	0.193126	0.462141	0.969675	0	0	-0.0813471	-0.367634	0.234054	0.663738	1.21523	0	0
0.4	-2.92328	1.44032	-1.75751	0.688559	-0.159876	0.91371	-0.340267	-0.0267402	-0.100161	0.234358	0.31656	0	0	0.250517	0.0430983	-0.28332	0	0.0463491	0	0	-0.314383	-0.0929663	-0.072656	-0.101382	-0.247971	0.194496	0.458225	0.967217	0	0	-0.0829239	-0.367962	0.229194	0.658756	1.21662	0	0
